<svg version="1.1" preserveAspectRatio="none" xmlns="http://www.w3.org/2000/svg" width="500" height="500" viewBox="0 0 500 500"><rect width="100%" height="100%" fill="#FFFFFF" fill-opacity="1"/><svg viewBox="-74.3463 359.0255 715.0566 189.2" width="333" height="88.1099482194836" x="83.5px" y="205.945px" xmlns="http://www.w3.org/2000/svg" xmlns:xlink="http://www.w3.org/1999/xlink" preserveAspectRatio="none"><defs></defs><style>.companyName {fill:#4D4D4D;fill-opacity:1;}.icon1 {fill:#FF834F;fill-opacity:1;}.icon2 {fill:#FF4949;fill-opacity:1;}.icon3 {fill:#FFAE78;fill-opacity:1;}.icon3-str {stroke:#FFAE78;stroke-opacity:1;}.shapeStroke-str {stroke:#313131;stroke-opacity:1;}.text {fill:#4D4D4D;fill-opacity:1;}</style><g opacity="1" transform="rotate(0 -74.3463 371.0255)">
<svg width="280.6538" height="165.2" x="-74.3463" y="371.0255" version="1.1" preserveAspectRatio="none" viewBox="7.124267578125 18.999969482421875 65.7515869140625 38.70306396484375">
  <g transform="matrix(1 0 0 1 0 0)" class="icon1"><title>flower_039-lotus-blossom-nature-spring</title><desc>Created with Sketch.</desc><g stroke-width="1" fill-rule="evenodd"><g transform="translate(-1040.000000, -439.000000)"><g transform="translate(1047.000000, 458.000000)"><path d="M20.4685887,3.59121821 C20.2465663,4.32709297 20.0250786,5.15760946 19.8185809,6.06675018 C19.4358187,7.75192559 19.1484735,9.51299204 18.9954019,11.308133 C18.9484788,11.8584208 19.3565366,12.3425559 19.9068244,12.3894789 C20.4571122,12.436402 20.9412473,12.0283442 20.9881703,11.4780564 C21.1329366,9.78031602 21.4055904,8.10928963 21.7689047,6.50973688 C21.9647288,5.64758842 22.1743,4.86175543 22.3833366,4.16892095 C22.507342,3.75791538 22.6023215,3.47264541 22.6539307,3.32967294 C22.8414476,2.81019642 22.5723412,2.237065 22.0528647,2.04954808 C21.5333882,1.86203116 20.9602568,2.13113758 20.7727398,2.65061409 C20.7094,2.826084 20.6032187,3.14499825 20.4685887,3.59121821 Z M43.1650431,2.5089562 C42.6874029,2.81559557 42.1567692,3.17620493 41.5862587,3.58893331 C39.9587722,4.76631713 38.3315633,6.12899105 36.8096086,7.66364494 C36.4207102,8.05578835 36.4233407,8.68894787 36.8154841,9.0778463 C37.2076276,9.46674473 37.8407871,9.46411416 38.2296855,9.07197075 C39.6692907,7.62035343 41.2143334,6.32648797 42.758533,5.20935701 C43.2981126,4.81900522 43.7982062,4.47915035 44.2455233,4.19197804 C44.5101869,4.02206716 44.6957562,3.90898063 44.7889573,3.85484123 C45.2665167,3.57743269 45.428771,2.96541028 45.1513624,2.48785091 C44.8739539,2.01029155 44.2619315,1.84803725 43.7843721,2.1254458 C43.6661746,2.19410533 43.4553539,2.32258007 43.1650431,2.5089562 Z"></path><path d="M24.4137413,3.58893331 C23.8432308,3.17620493 23.3125971,2.81559557 22.8349569,2.5089562 C22.5446461,2.32258007 22.3338254,2.19410533 22.2156279,2.1254458 C21.7380685,1.84803725 21.1260461,2.01029155 20.8486376,2.48785091 C20.571229,2.96541028 20.7334833,3.57743269 21.2110427,3.85484123 C21.3042438,3.90898063 21.4898131,4.02206716 21.7544767,4.19197804 C22.2017938,4.47915035 22.7018874,4.81900522 23.241467,5.20935701 C24.7856666,6.32648797 26.3307093,7.62035343 27.7703145,9.07197075 C28.1592129,9.46411416 28.7923724,9.46674473 29.1845159,9.0778463 C29.5766593,8.68894787 29.5792898,8.05578835 29.1903914,7.66364494 C27.6684367,6.12899105 26.0412278,4.76631713 24.4137413,3.58893331 Z M46.1814191,6.06675018 C45.9749214,5.15760946 45.7534337,4.32709297 45.5314113,3.59121821 C45.3967813,3.14499825 45.2906,2.826084 45.2272602,2.65061409 C45.0397432,2.13113758 44.4666118,1.86203116 43.9471353,2.04954808 C43.4276588,2.237065 43.1585524,2.81019642 43.3460693,3.32967294 C43.3976785,3.47264541 43.492658,3.75791538 43.6166634,4.16892095 C43.8257,4.86175543 44.0352712,5.64758842 44.2310953,6.50973688 C44.5913769,8.09593771 44.862581,9.75288303 45.0082848,11.4367878 C45.0558946,11.9870166 45.5405386,12.3944698 46.0907674,12.34686 C46.6409962,12.2992502 47.0484494,11.8146062 47.0008396,11.2643774 C46.846789,9.48400786 46.5609793,7.73782829 46.1814191,6.06675018 Z"></path><path d="M59.8512413,14.9520094 C57.9235766,14.8217338 55.6795778,14.8338679 53.2909372,15.0850643 C52.7416813,15.1428256 52.3432462,15.6349103 52.4010075,16.1841662 C52.4587689,16.7334222 52.9508536,17.1318573 53.5001095,17.0740959 C55.7644867,16.8359675 57.8961282,16.8244409 59.7163847,16.9474576 C60.1267598,16.9751916 60.4129603,17.002492 60.5568894,17.0197774 C61.1052339,17.0856315 61.6031402,16.6944957 61.6689943,16.1461512 C61.7348484,15.5978067 61.3437126,15.0999004 60.7953681,15.0340463 C60.6179783,15.0127425 60.2973616,14.9821591 59.8512413,14.9520094 Z"></path><path d="M60.8200027,18.5055907 C61.0581027,17.928423 61.2600658,17.3991957 61.4268199,16.928657 C61.5282812,16.6423585 61.5962644,16.4364879 61.6316556,16.3218161 C61.7945267,15.7940932 61.4987558,15.2342561 60.971033,15.071385 C60.4433101,14.9085139 59.883473,15.2042847 59.7206019,15.7320076 C59.693126,15.821033 59.6337408,16.0008666 59.5416978,16.2605891 C59.3859449,16.7000853 59.1959965,17.1978292 58.9711462,17.7428787 C58.3271885,19.3038682 57.5348075,20.9247162 56.5893738,22.5176331 C56.3074905,22.992565 56.4639873,23.6060848 56.9389192,23.8879681 C57.4138511,24.1698513 58.0273709,24.0133545 58.3092542,23.5384227 C59.3071444,21.8571242 60.1412455,20.1509361 60.8200027,18.5055907 Z"></path><path d="M6.14875868,14.9520094 C5.70263841,14.9821591 5.38202166,15.0127425 5.20463189,15.0340463 C4.65628739,15.0999004 4.26515164,15.5978067 4.33100572,16.1461512 C4.39685981,16.6944957 4.89476613,17.0856315 5.44311063,17.0197774 C5.58703969,17.002492 5.87324021,16.9751916 6.28361526,16.9474576 C8.11770082,16.8235063 10.2656941,16.8361399 12.5459079,17.0789658 C13.0950874,17.1374494 13.5876956,16.7396617 13.6461792,16.1904822 C13.7046627,15.6413027 13.3068751,15.1486945 12.7576956,15.0902109 C10.3522172,14.8340453 8.09103984,14.8207459 6.14875868,14.9520094 Z"></path><path d="M4.57873375,16.9443124 C4.75010699,17.4269273 4.95771128,17.9692397 5.20251449,18.5600537 C5.90047396,20.2445263 6.75849026,21.9866074 7.78540393,23.6969918 C8.06969112,24.1704886 8.68399643,24.3238733 9.15749325,24.0395861 C9.63099008,23.7552989 9.78437479,23.1409936 9.5000876,22.6674968 C8.52743093,21.0474806 7.71238993,19.3926548 7.05018509,17.7944733 C6.8189308,17.2363585 6.62359331,16.72609 6.46343801,16.2750667 C6.36877021,16.0084669 6.30768335,15.8236555 6.27939808,15.7320076 C6.11652698,15.2042847 5.55668994,14.9085139 5.02896705,15.071385 C4.50124416,15.2342561 4.20547334,15.7940932 4.36834444,16.3218161 C4.40466237,16.4394907 4.47448443,16.6507295 4.57873375,16.9443124 Z"></path><path d="M4.85182589,23.0474632 C3.75499202,23.3735592 2.74751195,23.7231494 1.85053756,24.0734215 C1.53491003,24.1966753 1.2550298,24.3115075 1.01356303,24.4150773 C0.865734637,24.4784838 0.761732166,24.5249197 0.704232029,24.5515473 C0.203075456,24.783626 -0.0150552384,25.3780306 0.217023486,25.8791872 C0.449102211,26.3803438 1.04350686,26.5984745 1.54466344,26.3663958 C1.72280625,26.2839003 2.07460117,26.1330086 2.57804296,25.9364126 C3.42517831,25.6056029 4.38049988,25.2741114 5.42178285,24.964531 C8.61065471,24.0164583 11.8822582,23.4790077 15.0188823,23.5610877 C15.570978,23.5755351 16.030252,23.139685 16.0446993,22.5875892 C16.0591467,22.0354935 15.6232966,21.5762195 15.0712009,21.5617722 C11.6994137,21.4735384 8.22718094,22.0439478 4.85182589,23.0474632 Z"></path><path d="M0.71216541,26.5784904 C1.0346382,26.9973097 1.41164563,27.4624952 1.84051857,27.9625325 C3.06348461,29.3884294 4.4608541,30.8135938 6.01249924,32.1457986 C9.12548281,34.8185306 12.4590193,36.7782702 15.9575973,37.7157114 C24.3839765,39.9735529 32.9192142,38.1651999 33.9659258,34.258819 C34.1088676,33.7253529 33.7922851,33.177016 33.258819,33.0340742 C32.7253529,32.8911324 32.177016,33.2077149 32.0340742,33.741181 C31.3682341,36.2261299 23.9731495,37.7929198 16.4752354,35.7838598 C13.3014947,34.9334585 10.2187278,33.1211428 7.31533493,30.6283602 C5.84622463,29.3670178 4.51898839,28.0133817 3.35862731,26.660478 C2.95333575,26.187935 2.5984217,25.7500103 2.29685713,25.3583461 C2.11854881,25.1267639 1.99931619,24.9645133 1.94207733,24.8832269 C1.62410237,24.4316626 1.00026749,24.323367 0.548703135,24.6413419 C0.0971387773,24.9593169 -0.0111568259,25.5831518 0.306818135,26.0347161 C0.380027861,26.1386831 0.516051307,26.3237825 0.71216541,26.5784904 Z"></path><path d="M60.5782171,24.964531 C61.6195001,25.2741114 62.5748217,25.6056029 63.421957,25.9364126 C63.9253988,26.1330086 64.2771938,26.2839003 64.4553366,26.3663958 C64.9564931,26.5984745 65.5508978,26.3803438 65.7829765,25.8791872 C66.0150552,25.3780306 65.7969245,24.783626 65.295768,24.5515473 C65.2382678,24.5249197 65.1342654,24.4784838 64.986437,24.4150773 C64.7449702,24.3115075 64.46509,24.1966753 64.1494624,24.0734215 C63.252488,23.7231494 62.245008,23.3735592 61.1481741,23.0474632 C57.7728191,22.0439478 54.3005863,21.4735384 50.9287991,21.5617722 C50.3767034,21.5762195 49.9408533,22.0354935 49.9553007,22.5875892 C49.969748,23.139685 50.429022,23.5755351 50.9811177,23.5610877 C54.1177418,23.4790077 57.3893453,24.0164583 60.5782171,24.964531 Z"></path><path d="M63.7031429,25.3583461 C63.4015783,25.7500103 63.0466642,26.187935 62.6413727,26.660478 C61.4810116,28.0133817 60.1537754,29.3670178 58.6846651,30.6283602 C55.7812722,33.1211428 52.6985053,34.9334585 49.5247646,35.7838598 C42.0268505,37.7929198 34.6317659,36.2261299 33.9659258,33.741181 C33.822984,33.2077149 33.2746471,32.8911324 32.741181,33.0340742 C32.2077149,33.177016 31.8911324,33.7253529 32.0340742,34.258819 C33.0807858,38.1651999 41.6160235,39.9735529 50.0424027,37.7157114 C53.5409807,36.7782702 56.8745172,34.8185306 59.9875008,32.1457986 C61.5391459,30.8135938 62.9365154,29.3884294 64.1594814,27.9625325 C64.5883544,27.4624952 64.9653618,26.9973097 65.2878346,26.5784904 C65.4839487,26.3237825 65.6199721,26.1386831 65.6931819,26.0347161 C66.0111568,25.5831518 65.9028612,24.9593169 65.4512969,24.6413419 C64.9997325,24.323367 64.3758976,24.4316626 64.0579227,24.8832269 C64.0006838,24.9645133 63.8814512,25.1267639 63.7031429,25.3583461 Z"></path><path d="M53.1748376,9.67555357 C53.1288642,10.458061 53.0473398,11.3320754 52.9215112,12.274229 C52.5623278,14.9636482 51.9219657,17.6511042 50.9346639,20.1483005 C50.0542461,22.3751534 48.9361425,24.3423879 47.5594746,25.9830368 C42.5698925,31.9293892 35.61352,34.8875964 33.6427876,33.2339556 C33.2197129,32.8789538 32.5889574,32.9341377 32.2339556,33.3572124 C31.8789538,33.7802871 31.9341377,34.4110426 32.3572124,34.7660444 C35.4552363,37.3655952 43.4841224,33.9513 49.0915635,27.268612 C50.6162459,25.4515662 51.8395037,23.2993195 52.7945756,20.8836428 C53.847552,18.2203349 54.5246566,15.3786791 54.9039096,12.5389867 C55.0365337,11.5459512 55.1226223,10.6230042 55.1713948,9.79285414 C55.1885693,9.50052851 55.1998412,9.24005672 55.2063502,9.01428829 C55.2103419,8.87583478 55.2118428,8.77784783 55.2119876,8.72318267 C55.2134508,8.17089986 54.7669232,7.72200005 54.2146404,7.72053689 C53.6623576,7.71907372 53.2134578,8.16560127 53.2119946,8.71788408 C53.2115543,8.88408012 53.2021275,9.21105545 53.1748376,9.67555357 Z M12.4335913,9.88073833 C13.1066226,10.0376953 13.8585664,10.2381121 14.669364,10.485736 C16.9859468,11.1932386 19.3017562,12.1345831 21.4556889,13.3367009 C22.9822169,14.1886618 24.3712839,15.143079 25.5921057,16.2039435 C26.0089845,16.566201 26.6405993,16.5219217 27.0028568,16.1050429 C27.3651144,15.6881641 27.3208351,15.0565494 26.9039563,14.6942918 C25.573564,13.5382133 24.0718169,12.5063745 22.4303735,11.5902788 C20.1414839,10.3128411 17.6971266,9.31924365 15.2535427,8.57295394 C14.3982819,8.31175059 13.6031715,8.09982858 12.8878209,7.93300235 C12.4538999,7.83180805 12.1394896,7.76756473 11.9642655,7.73618913 C11.4206272,7.63884529 10.9010085,8.00063845 10.8036646,8.54427676 C10.7063208,9.08791508 11.0681139,9.60753379 11.6117523,9.70487763 C11.7538727,9.73032569 12.0344831,9.7876627 12.4335913,9.88073833 Z"></path><path d="M44.5443111,13.3367009 C46.6982438,12.1345831 49.0140532,11.1932386 51.330636,10.485736 C52.1414336,10.2381121 52.8933774,10.0376953 53.5664087,9.88073833 C53.9655169,9.7876627 54.2461273,9.73032569 54.3882477,9.70487763 C54.9318861,9.60753379 55.2936792,9.08791508 55.1963354,8.54427676 C55.0989915,8.00063845 54.5793728,7.63884529 54.0357345,7.73618913 C53.8605104,7.76756473 53.5461001,7.83180805 53.1121791,7.93300235 C52.3968285,8.09982858 51.6017181,8.31175059 50.7464573,8.57295394 C48.3028734,9.31924365 45.8585161,10.3128411 43.5696265,11.5902788 C41.9281831,12.5063745 40.426436,13.5382133 39.0960437,14.6942918 C38.6791649,15.0565494 38.6348856,15.6881641 38.9971432,16.1050429 C39.3594007,16.5219217 39.9910155,16.566201 40.4078943,16.2039435 C41.6287161,15.143079 43.0177831,14.1886618 44.5443111,13.3367009 Z M18.4405254,25.9830368 C17.0638575,24.3423879 15.9457539,22.3751534 15.0653361,20.1483005 C14.0780343,17.6511042 13.4376722,14.9636482 13.0784888,12.274229 C12.9526602,11.3320754 12.8711358,10.458061 12.8251624,9.67555357 C12.7978725,9.21105545 12.7884457,8.88408012 12.7880054,8.71788408 C12.7865422,8.16560127 12.3376424,7.71907372 11.7853596,7.72053689 C11.2330768,7.72200005 10.7865492,8.17089986 10.7880124,8.72318267 C10.7881572,8.77784783 10.7896581,8.87583478 10.7936498,9.01428829 C10.8001588,9.24005672 10.8114307,9.50052851 10.8286052,9.79285414 C10.8773777,10.6230042 10.9634663,11.5459512 11.0960904,12.5389867 C11.4753434,15.3786791 12.152448,18.2203349 13.2054244,20.8836428 C14.1604963,23.2993195 15.3837541,25.4515662 16.9084365,27.268612 C22.5158776,33.9513 30.5447637,37.3655952 33.6427876,34.7660444 C34.0658623,34.4110426 34.1210462,33.7802871 33.7660444,33.3572124 C33.4110426,32.9341377 32.7802871,32.8789538 32.3572124,33.2339556 C30.38648,34.8875964 23.4301075,31.9293892 18.4405254,25.9830368 Z"></path><path d="M41,18.5 C41,14.3227498 39.6393836,10.0355741 37.3796089,5.8570406 C36.5939442,4.40427349 35.7526432,3.06767317 34.9104276,1.87580765 C34.6146785,1.45727681 34.3393932,1.08608337 34.0913916,0.765870502 C33.9402176,0.570678819 33.8300626,0.433912597 33.7677447,0.359244123 C33.413865,-0.0647695602 32.7832578,-0.121624387 32.3592441,0.232255312 C31.9352304,0.586135012 31.8783756,1.21674219 32.2322553,1.64075588 C32.2793124,1.69713899 32.3742355,1.81499362 32.5101709,1.99050971 C32.740685,2.28814314 32.9986027,2.63591826 33.2770724,3.02999593 C34.0754818,4.15986901 34.8748058,5.42977911 35.6203911,6.80843563 C37.7356164,10.7196839 39,14.7036391 39,18.5 C39,26.2624118 35.5726085,33 33,33 C32.4477153,33 32,33.4477153 32,34 C32,34.5522847 32.4477153,35 33,35 C37.044183,35 41,27.2236297 41,18.5 Z"></path><path d="M31.9086084,0.765870502 C31.6606068,1.08608337 31.3853215,1.45727681 31.0895724,1.87580765 C30.2473568,3.06767317 29.4060558,4.40427349 28.6203911,5.8570406 C26.3606164,10.0355741 25,14.3227498 25,18.5 C25,27.2236297 28.955817,35 33,35 C33.5522847,35 34,34.5522847 34,34 C34,33.4477153 33.5522847,33 33,33 C30.4273915,33 27,26.2624118 27,18.5 C27,14.7036391 28.2643836,10.7196839 30.3796089,6.80843563 C31.1251942,5.42977911 31.9245182,4.15986901 32.7229276,3.02999593 C33.0013973,2.63591826 33.259315,2.28814314 33.4898291,1.99050971 C33.6257645,1.81499362 33.7206876,1.69713899 33.7677447,1.64075588 C34.1216244,1.21674219 34.0647696,0.586135012 33.6407559,0.232255312 C33.2167422,-0.121624387 32.586135,-0.0647695602 32.2322553,0.359244123 C32.1699374,0.433912597 32.0597824,0.570678819 31.9086084,0.765870502 Z"></path></g></g></g></g>
</svg>
</g><g opacity="1" transform="rotate(0 270.3075 496.0255)">
<svg width="110.2899" height="25.2" x="270.3075" y="496.0255" version="1.1" preserveAspectRatio="none" viewBox="3.76 -28.4 125.52 28.679999999999996">
  <g transform="matrix(1 0 0 1 0 0)" class="text"><path id="id-6izo4zJp4" d="M27.68 0L22.08 0L16.36-8.20Q16-8.16 15.28-8.16L15.28-8.16L8.96-8.16L8.96 0L3.76 0L3.76-28L15.28-28Q18.92-28 21.62-26.80Q24.32-25.60 25.76-23.36Q27.20-21.12 27.20-18.04L27.20-18.04Q27.20-14.88 25.66-12.60Q24.12-10.32 21.24-9.20L21.24-9.20L27.68 0ZM21.96-18.04Q21.96-20.72 20.20-22.16Q18.44-23.60 15.04-23.60L15.04-23.60L8.96-23.60L8.96-12.44L15.04-12.44Q18.44-12.44 20.20-13.90Q21.96-15.36 21.96-18.04L21.96-18.04Z M44.48-21.60Q49.20-21.60 51.70-19.34Q54.20-17.08 54.20-12.52L54.20-12.52L54.20 0L49.48 0L49.48-2.60Q48.56-1.20 46.86-0.46Q45.16 0.28 42.76 0.28L42.76 0.28Q40.36 0.28 38.56-0.54Q36.76-1.36 35.78-2.82Q34.80-4.28 34.80-6.12L34.80-6.12Q34.80-9 36.94-10.74Q39.08-12.48 43.68-12.48L43.68-12.48L49.20-12.48L49.20-12.80Q49.20-15.04 47.86-16.24Q46.52-17.44 43.88-17.44L43.88-17.44Q42.08-17.44 40.34-16.88Q38.60-16.32 37.40-15.32L37.40-15.32L35.44-18.96Q37.12-20.24 39.48-20.92Q41.84-21.60 44.48-21.60L44.48-21.60ZM43.80-3.36Q45.68-3.36 47.14-4.22Q48.60-5.08 49.20-6.68L49.20-6.68L49.20-9.16L44.04-9.16Q39.72-9.16 39.72-6.32L39.72-6.32Q39.72-4.96 40.80-4.16Q41.88-3.36 43.80-3.36L43.80-3.36Z M91.56-21.60Q95.60-21.60 97.96-19.26Q100.32-16.92 100.32-12.24L100.32-12.24L100.32 0L95.32 0L95.32-11.60Q95.32-14.40 94.08-15.82Q92.84-17.24 90.52-17.24L90.52-17.24Q88-17.24 86.48-15.58Q84.96-13.92 84.96-10.84L84.96-10.84L84.96 0L79.96 0L79.96-11.60Q79.96-14.40 78.72-15.82Q77.48-17.24 75.16-17.24L75.16-17.24Q72.60-17.24 71.10-15.60Q69.60-13.96 69.60-10.84L69.60-10.84L69.60 0L64.60 0L64.60-21.36L69.36-21.36L69.36-18.64Q70.56-20.08 72.36-20.84Q74.16-21.60 76.36-21.60L76.36-21.60Q78.76-21.60 80.62-20.70Q82.48-19.80 83.56-18.04L83.56-18.04Q84.88-19.72 86.96-20.66Q89.04-21.60 91.56-21.60L91.56-21.60Z M116.08-4.40L129.28-4.40L129.28 0L108.64 0L108.64-3.48L119.76-14.04Q121.64-15.84 122.30-17.18Q122.96-18.52 122.96-19.84L122.96-19.84Q122.96-21.80 121.64-22.84Q120.32-23.88 117.76-23.88L117.76-23.88Q113.48-23.88 111.20-20.96L111.20-20.96L107.56-23.76Q109.20-25.96 111.98-27.18Q114.76-28.40 118.20-28.40L118.20-28.40Q122.76-28.40 125.48-26.24Q128.20-24.08 128.20-20.36L128.20-20.36Q128.20-18.08 127.24-16.08Q126.28-14.08 123.56-11.52L123.56-11.52L116.08-4.40Z"/></g>
</svg>
</g><g opacity="1" transform="rotate(0 270.3075 386.0255)">
<svg width="370.4028" height="90" x="270.3075" y="386.0255" version="1.1" preserveAspectRatio="none" viewBox="2.88 -29.68 155.39999999999998 37.760000000000005">
  <g transform="matrix(1 0 0 1 0 0)" class="companyName"><path id="id-D6z1nYkh7" d="M18.92 0L12.12-8.44L9.12-5.48L9.12 0L2.88 0L2.88-29.68L9.12-29.68L9.12-12.88L18.24-21.52L25.68-21.52L16.72-12.40L26.48 0L18.92 0Z M37.56-21.84Q42.56-21.84 45.24-19.46Q47.92-17.08 47.92-12.28L47.92-12.28L47.92 0L42.08 0L42.08-2.68Q40.32 0.32 35.52 0.32L35.52 0.32Q33.04 0.32 31.22-0.52Q29.40-1.36 28.44-2.84Q27.48-4.32 27.48-6.20L27.48-6.20Q27.48-9.20 29.74-10.92Q32-12.64 36.72-12.64L36.72-12.64L41.68-12.64Q41.68-14.68 40.44-15.78Q39.20-16.88 36.72-16.88L36.72-16.88Q35-16.88 33.34-16.34Q31.68-15.80 30.52-14.88L30.52-14.88L28.28-19.24Q30.04-20.48 32.50-21.16Q34.96-21.84 37.56-21.84L37.56-21.84ZM37.08-3.88Q38.68-3.88 39.92-4.62Q41.16-5.36 41.68-6.80L41.68-6.80L41.68-9L37.40-9Q33.56-9 33.56-6.48L33.56-6.48Q33.56-5.28 34.50-4.58Q35.44-3.88 37.08-3.88L37.08-3.88Z M65.76-5.44L67.44-1.04Q66.52-0.36 65.18-0.02Q63.84 0.32 62.36 0.32L62.36 0.32Q58.52 0.32 56.42-1.64Q54.32-3.60 54.32-7.40L54.32-7.40L54.32-16.24L51.00-16.24L51.00-21.04L54.32-21.04L54.32-26.28L60.56-26.28L60.56-21.04L65.92-21.04L65.92-16.24L60.56-16.24L60.56-7.48Q60.56-6.12 61.26-5.38Q61.96-4.64 63.24-4.64L63.24-4.64Q64.72-4.64 65.76-5.44L65.76-5.44Z M70.96 0L70.96-29.68L77.20-29.68L77.20 0L70.96 0Z M104.08-10.68Q104.08-10.56 103.96-9L103.96-9L87.68-9Q88.12-7 89.76-5.84Q91.40-4.68 93.84-4.68L93.84-4.68Q95.52-4.68 96.82-5.18Q98.12-5.68 99.24-6.76L99.24-6.76L102.56-3.16Q99.52 0.32 93.68 0.32L93.68 0.32Q90.04 0.32 87.24-1.10Q84.44-2.52 82.92-5.04Q81.40-7.56 81.40-10.76L81.40-10.76Q81.40-13.92 82.90-16.46Q84.40-19 87.02-20.42Q89.64-21.84 92.88-21.84L92.88-21.84Q96.04-21.84 98.60-20.48Q101.16-19.12 102.62-16.58Q104.08-14.04 104.08-10.68L104.08-10.68ZM92.92-17.12Q90.80-17.12 89.36-15.92Q87.92-14.72 87.60-12.64L87.60-12.64L98.20-12.64Q97.88-14.68 96.44-15.90Q95.00-17.12 92.92-17.12L92.92-17.12Z M124.52-21.52L130.44-21.52L130.44-3.60Q130.44 2.32 127.36 5.20Q124.28 8.08 118.36 8.08L118.36 8.08Q115.24 8.08 112.44 7.32Q109.64 6.56 107.80 5.12L107.80 5.12L110.28 0.64Q111.64 1.76 113.72 2.42Q115.80 3.08 117.88 3.08L117.88 3.08Q121.12 3.08 122.66 1.62Q124.20 0.16 124.20-2.80L124.20-2.80L124.20-3.72Q121.76-1.04 117.40-1.04L117.40-1.04Q114.44-1.04 111.98-2.34Q109.52-3.64 108.08-6Q106.64-8.36 106.64-11.44L106.64-11.44Q106.64-14.52 108.08-16.88Q109.52-19.24 111.98-20.54Q114.44-21.84 117.40-21.84L117.40-21.84Q122.08-21.84 124.52-18.76L124.52-18.76L124.52-21.52ZM118.64-6.16Q121.12-6.16 122.70-7.62Q124.28-9.08 124.28-11.44L124.28-11.44Q124.28-13.80 122.70-15.26Q121.12-16.72 118.64-16.72L118.64-16.72Q116.16-16.72 114.56-15.26Q112.96-13.80 112.96-11.44L112.96-11.44Q112.96-9.08 114.56-7.62Q116.16-6.16 118.64-6.16L118.64-6.16Z M146.48 0.32Q143.08 0.32 140.38-1.10Q137.68-2.52 136.16-5.04Q134.64-7.56 134.64-10.76L134.64-10.76Q134.64-13.96 136.16-16.48Q137.68-19 140.38-20.42Q143.08-21.84 146.48-21.84L146.48-21.84Q149.88-21.84 152.56-20.42Q155.24-19 156.76-16.48Q158.28-13.96 158.28-10.76L158.28-10.76Q158.28-7.56 156.76-5.04Q155.24-2.52 152.56-1.10Q149.88 0.32 146.48 0.32L146.48 0.32ZM146.48-4.80Q148.88-4.80 150.42-6.42Q151.96-8.04 151.96-10.76L151.96-10.76Q151.96-13.48 150.42-15.10Q148.88-16.72 146.48-16.72L146.48-16.72Q144.08-16.72 142.52-15.10Q140.96-13.48 140.96-10.76L140.96-10.76Q140.96-8.04 142.52-6.42Q144.08-4.80 146.48-4.80L146.48-4.80Z"/></g>
</svg>
</g><g opacity="1" transform="rotate(0 236.3075 359.0255)">
<svg width="6" height="189.2" x="236.3075" y="359.0255" version="1.1" preserveAspectRatio="none" viewBox="0 0 6 189.2">
  <defs><rect x="0" y="0" width="6" height="189.2" rx="0px" ry="0px" id="id-tBXipXk0b1680514474040"></rect></defs><use class="companyName shapeStroke-str" style="stroke-width:0;" xlink:href="#id-tBXipXk0b1680514474040"></use>
</svg>
</g></svg></svg>